Normalized EMG Linear Envelopes
nRows=200
nColumns=4

endheader
time	 med_gas_r	  soleus_r	 tib_ant_r	
2.92742	  0.002264	  0.008295	  0.000845	
2.96069	  0.002164	  0.008332	  0.000884	
2.99395	  0.002092	  0.008208	  0.000920	
3.02722	  0.002060	  0.007832	  0.000950	
3.06048	  0.002075	  0.007246	  0.000971	
3.09375	  0.002137	  0.006580	  0.000981	
3.12702	  0.002240	  0.005966	  0.000980	
3.16028	  0.002369	  0.005475	  0.000969	
3.19355	  0.002494	  0.005108	  0.000952	
3.22681	  0.002581	  0.004836	  0.000932	
3.26008	  0.002603	  0.004639	  0.000914	
3.29335	  0.002557	  0.004510	  0.000901	
3.32661	  0.002462	  0.004437	  0.000894	
3.35988	  0.002353	  0.004399	  0.000891	
3.39315	  0.002260	  0.004377	  0.000890	
3.42641	  0.002192	  0.004360	  0.000889	
3.45968	  0.002141	  0.004348	  0.000886	
3.49294	  0.002092	  0.004343	  0.000883	
3.52621	  0.002038	  0.004350	  0.000881	
3.55948	  0.001984	  0.004373	  0.000882	
3.59274	  0.001946	  0.004412	  0.000887	
3.62601	  0.001930	  0.004462	  0.000896	
3.65927	  0.001936	  0.004522	  0.000910	
3.69254	  0.001948	  0.004601	  0.000926	
3.72581	  0.001953	  0.004702	  0.000942	
3.75907	  0.001942	  0.004814	  0.000956	
3.79234	  0.001913	  0.004914	  0.000966	
3.8256	  0.001875	  0.004982	  0.000971	
3.85887	  0.001838	  0.005022	  0.000971	
3.89214	  0.001810	  0.005045	  0.000969	
3.9254	  0.001801	  0.005051	  0.000965	
3.95867	  0.001816	  0.005025	  0.000963	
3.99194	  0.001859	  0.004954	  0.000968	
4.0252	  0.001927	  0.004837	  0.000981	
4.05847	  0.002009	  0.004698	  0.001005	
4.09173	  0.002088	  0.004564	  0.001039	
4.125	  0.002152	  0.004452	  0.001079	
4.15827	  0.002195	  0.004366	  0.001120	
4.19153	  0.002214	  0.004310	  0.001158	
4.2248	  0.002209	  0.004285	  0.001188	
4.25806	  0.002180	  0.004285	  0.001206	
4.29133	  0.002127	  0.004289	  0.001208	
4.3246	  0.002060	  0.004280	  0.001188	
4.35786	  0.001995	  0.004249	  0.001140	
4.39113	  0.001947	  0.004211	  0.001049	
4.4244	  0.001921	  0.004180	  0.000899	
4.45766	  0.001917	  0.004159	  0.000678	
4.49093	  0.001927	  0.004137	  0.000376	
4.52419	  0.001944	  0.004092	  0.000004	
4.55746	  0.001958	  0.004004	 -0.000401	
4.59073	  0.001959	  0.003864	 -0.000759	
4.62399	  0.001942	  0.003694	 -0.000939	
4.65726	  0.001912	  0.003546	 -0.000754	
4.69052	  0.001890	  0.003502	  0.000045	
4.72379	  0.001904	  0.003653	  0.001765	
4.75706	  0.001985	  0.004079	  0.004760	
4.79032	  0.002154	  0.004831	  0.009369	
4.82359	  0.002410	  0.005912	  0.015813	
4.85685	  0.002729	  0.007250	  0.024083	
4.89012	  0.003064	  0.008704	  0.033873	
4.92339	  0.003369	  0.010118	  0.044612	
4.95665	  0.003617	  0.011395	  0.055552	
4.98992	  0.003811	  0.012545	  0.065902	
5.02319	  0.003974	  0.013675	  0.075008	
5.05645	  0.004136	  0.014921	  0.082599	
5.08972	  0.004319	  0.016390	  0.088993	
5.12298	  0.004542	  0.018133	  0.095099	
5.15625	  0.004825	  0.020185	  0.102110	
5.18952	  0.005199	  0.022579	  0.110984	
5.22278	  0.005686	  0.025326	  0.121990	
5.25605	  0.006291	  0.028345	  0.134607	
5.28931	  0.006978	  0.031425	  0.147793	
5.32258	  0.007674	  0.034268	  0.160382	
5.35585	  0.008286	  0.036591	  0.171313	
5.38911	  0.008739	  0.038241	  0.179716	
5.42238	  0.009006	  0.039245	  0.185058	
5.45565	  0.009111	  0.039787	  0.187382	
5.48891	  0.009112	  0.040117	  0.187451	
5.52218	  0.009071	  0.040474	  0.186553	
5.55544	  0.009050	  0.041057	  0.186096	
5.58871	  0.009106	  0.042029	  0.187301	
5.62198	  0.009289	  0.043521	  0.191175	
5.65524	  0.009629	  0.045606	  0.198598	
5.68851	  0.010127	  0.048279	  0.210235	
5.72177	  0.010754	  0.051463	  0.226283	
5.75504	  0.011467	  0.055013	  0.246267	
5.78831	  0.012217	  0.058723	  0.269118	
5.82157	  0.012956	  0.062343	  0.293391	
5.85484	  0.013643	  0.065652	  0.317419	
5.8881	  0.014261	  0.068574	  0.339347	
5.92137	  0.014811	  0.071243	  0.357331	
5.95464	  0.015307	  0.073931	  0.370063	
5.9879	  0.015752	  0.076883	  0.377444	
6.02117	  0.016134	  0.080177	  0.380894	
6.05444	  0.016446	  0.083706	  0.382952	
6.0877	  0.016714	  0.087256	  0.386348	
6.12097	  0.017005	  0.090594	  0.393109	
6.15423	  0.017418	  0.093571	  0.404182	
6.1875	  0.018062	  0.096199	  0.419591	
6.22077	  0.019026	  0.098695	  0.438743	
6.25403	  0.020354	  0.101399	  0.460582	
6.2873	  0.022027	  0.104553	  0.483578	
6.32056	  0.023933	  0.108061	  0.505792	
6.35383	  0.025873	  0.111439	  0.525259	
6.3871	  0.027610	  0.114052	  0.540704	
6.42036	  0.028960	  0.115522	  0.552206	
6.45363	  0.029871	  0.116008	  0.561240	
6.4869	  0.030425	  0.116141	  0.569818	
6.52016	  0.030775	  0.116684	  0.579270	
6.55343	  0.031066	  0.118158	  0.589763	
6.58669	  0.031408	  0.120670	  0.601126	
6.61996	  0.031884	  0.123951	  0.614283	
6.65323	  0.032544	  0.127471	  0.631797	
6.68649	  0.033376	  0.130583	  0.656739	
6.71976	  0.034295	  0.132741	  0.690531	
6.75302	  0.035172	  0.133726	  0.731290	
6.78629	  0.035889	  0.133719	  0.773856	
6.81956	  0.036353	  0.133089	  0.811682	
6.85282	  0.036489	  0.132061	  0.839623	
6.88609	  0.036233	  0.130605	  0.855943	
6.91935	  0.035554	  0.128633	  0.862089	
6.95262	  0.034489	  0.126259	  0.860419	
6.98589	  0.033128	  0.123807	  0.852006	
7.01915	  0.031585	  0.121550	  0.836703	
7.05242	  0.029955	  0.119497	  0.815239	
7.08569	  0.028328	  0.117429	  0.790792	
7.11895	  0.026833	  0.115146	  0.767938	
7.15222	  0.025655	  0.112694	  0.749795	
7.18548	  0.024996	  0.110425	  0.736078	
7.21875	  0.025010	  0.108899	  0.723862	
7.25202	  0.025736	  0.108668	  0.710287	
7.28528	  0.027084	  0.110044	  0.694884	
7.31855	  0.028873	  0.112918	  0.679930	
7.35181	  0.030884	  0.116750	  0.669081	
7.38508	  0.032939	  0.120800	  0.665790	
7.41835	  0.034944	  0.124464	  0.672445	
7.45161	  0.036887	  0.127514	  0.689887	
7.48488	  0.038741	  0.130021	  0.716688	
7.51815	  0.040382	  0.132059	  0.748592	
7.55141	  0.041583	  0.133484	  0.779139	
7.58468	  0.042143	  0.134002	  0.801674	
7.61794	  0.042021	  0.133479	  0.811645	
7.65121	  0.041372	  0.132190	  0.807880	
7.68448	  0.040447	  0.130751	  0.792471	
7.71774	  0.039452	  0.129781	  0.769752	
7.75101	  0.038474	  0.129550	  0.744876	
7.78427	  0.037506	  0.129904	  0.722241	
7.81754	  0.036514	  0.130426	  0.704223	
7.85081	  0.035464	  0.130639	  0.690967	
7.88407	  0.034321	  0.130041	  0.681488	
7.91734	  0.033031	  0.128067	  0.675161	
7.9506	  0.031571	  0.124269	  0.672135	
7.98387	  0.030035	  0.118734	  0.672166	
8.01714	  0.028675	  0.112452	  0.673069	
8.0504	  0.027846	  0.107203	  0.670698	
8.08367	  0.027854	  0.104894	  0.661222	
8.11694	  0.028812	  0.106746	  0.644294	
8.1502	  0.030575	  0.112799	  0.624476	
8.18347	  0.032785	  0.121953	  0.609372	
8.21673	  0.034997	  0.132387	  0.605393	
8.25	  0.036805	  0.142087	  0.614089	
8.28327	  0.037954	  0.149342	  0.631640	
8.31653	  0.038380	  0.153112	  0.651730	
8.3498	  0.038187	  0.153255	  0.669480	
8.38306	  0.037587	  0.150506	  0.683604	
8.41633	  0.036842	  0.146189	  0.695558	
8.4496	  0.036193	  0.141672	  0.706853	
8.48286	  0.035792	  0.137824	  0.716943	
8.51613	  0.035663	  0.134837	  0.723407	
8.5494	  0.035739	  0.132612	  0.724111	
8.58266	  0.035961	  0.131391	  0.719346	
8.61593	  0.036357	  0.131991	  0.712093	
8.64919	  0.037016	  0.135265	  0.706235	
8.68246	  0.037975	  0.141189	  0.704131	
8.71573	  0.039118	  0.148389	  0.705270	
8.74899	  0.040173	  0.154630	  0.706735	
8.78226	  0.040794	  0.157945	  0.705004	
8.81552	  0.040704	  0.157551	  0.697827	
8.84879	  0.039824	  0.153995	  0.685112	
8.88206	  0.038316	  0.148597	  0.668662	
8.91532	  0.036540	  0.142747	  0.651348	
8.94859	  0.034910	  0.137480	  0.636324	
8.98185	  0.033750	  0.133447	  0.626501	
9.01512	  0.033221	  0.131086	  0.624164	
9.04839	  0.033336	  0.130719	  0.630464	
9.08165	  0.034012	  0.132464	  0.644649	
9.11492	  0.035109	  0.136092	  0.663422	
9.14819	  0.036474	  0.141030	  0.681355	
9.18145	  0.037958	  0.146543	  0.692790	
9.21472	  0.039416	  0.151929	  0.694296	
9.24798	  0.040706	  0.156622	  0.686005	
9.28125	  0.041707	  0.160286	  0.671073	
9.31452	  0.042381	  0.162928	  0.653948	
9.34778	  0.042777	  0.164897	  0.638561	
9.38105	  0.042970	  0.166618	  0.626905	
9.41431	  0.042964	  0.168206	  0.618231	
9.44758	  0.042671	  0.169332	  0.609427	
9.48085	  0.041993	  0.169501	  0.596923	
9.51411	  0.040937	  0.168505	  0.579142	
9.54738	  0.039648	  0.166666	  0.557731	
